<svg width="48" height="48" viewBox="0 0 48 48" fill="none" xmlns="http://www.w3.org/2000/svg">
<circle cx="24" cy="24" r="24" fill="#EFEFEF"/>
<g clip-path="url(#clip0_88_505)">
<path d="M36 24C36 17.3726 30.6274 12 24 12C17.3726 12 12 17.3725 12 24C12 29.9895 16.3882 34.954 22.125 35.8542V27.4688H19.0781V24H22.125V21.3563C22.125 18.3488 23.9166 16.6875 26.6575 16.6875C27.9705 16.6875 29.3438 16.9219 29.3438 16.9219V19.875H27.8306C26.3398 19.875 25.875 20.8 25.875 21.7491V24H29.2031L28.6711 27.4688H25.875V35.8542C31.6117 34.954 36 29.9896 36 24Z" fill="#1877F2"/>
<path d="M28.6711 27.4688L29.2031 24H25.875V21.7491C25.875 20.7999 26.3399 19.875 27.8306 19.875H29.3438V16.9219C29.3438 16.9219 27.9705 16.6875 26.6575 16.6875C23.9166 16.6875 22.125 18.3488 22.125 21.3563V24H19.0781V27.4688H22.125V35.8542C22.7453 35.9514 23.3722 36.0002 24 36C24.6278 36.0002 25.2547 35.9514 25.875 35.8542V27.4688H28.6711Z" fill="white"/>
</g>
<defs>
<clipPath id="clip0_88_505">
<rect width="24" height="24" fill="white" transform="translate(12 12)"/>
</clipPath>
</defs>
</svg>
