<svg width="48" height="48" viewBox="0 0 48 48" fill="none" xmlns="http://www.w3.org/2000/svg">
<circle cx="24" cy="24" r="24" fill="#EFEFEF"/>
<path d="M21.3214 16.4334C19.7228 16.9879 18.3441 18.0406 17.3879 19.4366C16.4317 20.8326 15.9484 22.4985 16.009 24.1896C16.0695 25.8806 16.6708 27.5076 17.7244 28.8317C18.778 30.1558 20.2284 31.1071 21.8627 31.5459C23.1876 31.8877 24.5757 31.9027 25.9077 31.5896C27.1143 31.3186 28.2299 30.7388 29.1452 29.9071C30.0978 29.015 30.7892 27.8802 31.1452 26.6246C31.5319 25.2592 31.6008 23.8233 31.3464 22.4271H23.9064V25.5134H28.2152C28.1291 26.0056 27.9445 26.4754 27.6726 26.8946C27.4007 27.3139 27.047 27.674 26.6327 27.9534C26.1066 28.3015 25.5135 28.5357 24.8914 28.6409C24.2676 28.7569 23.6277 28.7569 23.0039 28.6409C22.3716 28.5103 21.7735 28.2493 21.2477 27.8746C20.4029 27.2766 19.7685 26.427 19.4352 25.4471C19.0963 24.4488 19.0963 23.3666 19.4352 22.3684C19.6725 21.6686 20.0647 21.0315 20.5827 20.5046C21.1754 19.8905 21.9258 19.4516 22.7516 19.2359C23.5774 19.0203 24.4466 19.0363 25.2639 19.2821C25.9024 19.478 26.4863 19.8204 26.9689 20.2821C27.4548 19.7988 27.9398 19.3142 28.4239 18.8284C28.6739 18.5671 28.9464 18.3184 29.1927 18.0509C28.4558 17.3652 27.591 16.8317 26.6477 16.4809C24.9298 15.8571 23.0501 15.8403 21.3214 16.4334Z" fill="white"/>
<path d="M21.321 16.4335C23.0496 15.84 24.9293 15.8564 26.6473 16.4797C27.5908 16.833 28.4552 17.3691 29.191 18.0572C28.941 18.3247 28.6773 18.5747 28.4223 18.8347C27.9373 19.3189 27.4527 19.8014 26.9685 20.2822C26.4859 19.8206 25.902 19.4781 25.2635 19.2822C24.4465 19.0355 23.5773 19.0186 22.7513 19.2334C21.9253 19.4482 21.1744 19.8863 20.581 20.4997C20.0631 21.0266 19.6708 21.6637 19.4335 22.3635L16.8423 20.3572C17.7698 18.5179 19.3757 17.111 21.321 16.4335Z" fill="#E33629"/>
<path d="M16.155 22.3447C16.2942 21.6544 16.5254 20.9859 16.8425 20.3572L19.4337 22.3684C19.0949 23.3667 19.0949 24.4489 19.4337 25.4472C18.5704 26.1138 17.7067 26.7838 16.8425 27.4572C16.0489 25.8776 15.8069 24.0778 16.155 22.3447Z" fill="#F8BD00"/>
<path d="M23.9063 22.426H31.3463C31.6007 23.8222 31.5318 25.2581 31.1451 26.6235C30.7891 27.8791 30.0977 29.014 29.1451 29.906C28.3088 29.2535 27.4688 28.606 26.6326 27.9535C27.0472 27.6739 27.401 27.3134 27.673 26.8937C27.9449 26.474 28.1293 26.0037 28.2151 25.511H23.9063C23.9051 24.4835 23.9063 23.4548 23.9063 22.426Z" fill="#587DBD"/>
<path d="M16.8413 27.4573C17.7055 26.7906 18.5692 26.1206 19.4326 25.4473C19.7666 26.4275 20.4018 27.2771 21.2476 27.8748C21.775 28.2477 22.3744 28.5066 23.0076 28.6348C23.6314 28.7508 24.2712 28.7508 24.8951 28.6348C25.5171 28.5296 26.1102 28.2954 26.6363 27.9473C27.4726 28.5998 28.3126 29.2473 29.1488 29.8998C28.2337 30.7319 27.1181 31.3121 25.9113 31.5835C24.5793 31.8966 23.1912 31.8816 21.8663 31.5398C20.8184 31.26 19.8397 30.7668 18.9913 30.091C18.0935 29.378 17.3601 28.4797 16.8413 27.4573Z" fill="#319F43"/>
</svg>
